<?xml version="1.0" encoding="UTF-8"?>
<svg width="512" height="512" version="1.1" viewBox="0 0 512 512" xmlns="http://www.w3.org/2000/svg">
 <g>
  <g>
   <g fill="#ccccce">
    <g fill-rule="evenodd">
     <circle cx="256" cy="256" r="230.34" fill="#ccccce"/>
     <circle cx="256" cy="256" r="218.39" fill="#19192b"/>
    </g>
   </g>
   <path d="m256 110.7c-7.1758 0-17.695 5.7039-27.5 15.611-24.026 24.276-52.084 60.663-54.625 89.875-0.74547 8.5692 0.27652 11.596 11.188 18.938 16.12 10.846 16.193 39.434 16.193 39.434l0.0195 6e-3a21.75 21.75 0 0 0 -10.338 18.498 21.75 21.75 0 0 0 14.871 20.615v57.428c-39.421-15.732-70.379-49.506-81.559-92.84-15.617-60.534 11.297-123.97 65.457-154.41a7.0007 7.0007 0 0 0 -3.0371 -13.145 7.0007 7.0007 0 0 0 -3.8223 0.94141c-59.679 33.545-89.334 103.52-72.152 170.12 14.035 54.4 56.535 95.257 108.87 108.44v-65.865a53.82 28.735 0 0 0 15.5 5.3848v76.869c-27.253-3.502-53.817-13.85-76.967-31.215-58.107-43.587-80.784-120.35-55.742-188.77a7.0007 7.0007 0 0 0 -6.2734 -9.5058 7.0007 7.0007 0 0 0 -6.873 4.6934c-27.143 74.16-2.5352 157.5 60.488 204.78 29.495 22.125 64.149 33.756 99.129 35.172v-5.502h4e-3v-84.539a53.82 28.735 0 0 0 7.168 0.29492 53.82 28.735 0 0 0 7.168 -0.29492v84.539h4e-3v5.502c34.98-1.4157 69.634-13.047 99.129-35.172 63.023-47.275 87.631-130.62 60.488-204.78a7.0007 7.0007 0 0 0 -6.873 -4.6934 7.0007 7.0007 0 0 0 -6.2734 9.5058c25.042 68.421 2.3653 145.18-55.742 188.77-23.15 17.365-49.714 27.713-76.967 31.215v-76.869a53.82 28.735 0 0 0 15.5 -5.3848v65.865c52.336-13.186 94.836-54.044 108.87-108.44 17.182-66.598-12.473-136.57-72.152-170.12a7.0007 7.0007 0 0 0 -3.8223 -0.94141 7.0007 7.0007 0 0 0 -3.0371 13.145c54.16 30.443 81.074 93.88 65.457 154.41-11.18 43.334-42.138 77.108-81.559 92.84v-57.428a21.75 21.75 0 0 0 14.871 -20.615 21.75 21.75 0 0 0 -10.338 -18.498l0.0195-6e-3s0.0729-28.587 16.193-39.434c10.911-7.3412 11.933-10.368 11.188-18.938-2.5413-29.212-30.599-65.599-54.625-89.875-9.8055-9.9075-20.324-15.611-27.5-15.611zm-43.312 167.3a15.063 15.063 0 0 1 1.0664 0.0371 15.063 15.063 0 0 1 1.4941 0.18164 15.063 15.063 0 0 1 1.4688 0.33008 15.063 15.063 0 0 1 1.4297 0.47461 15.063 15.063 0 0 1 1.373 0.61523 15.063 15.063 0 0 1 1.3066 0.75 15.063 15.063 0 0 1 1.2246 0.875 15.063 15.063 0 0 1 1.1309 0.99414 15.063 15.063 0 0 1 1.0254 1.1016 15.063 15.063 0 0 1 0.91211 1.1973 15.063 15.063 0 0 1 0.78711 1.2852 15.063 15.063 0 0 1 0.6543 1.3555 15.063 15.063 0 0 1 0.51757 1.4141 15.063 15.063 0 0 1 0.3711 1.459 15.063 15.063 0 0 1 0.22461 1.4883 15.063 15.063 0 0 1 0.0762 1.5039 15.063 15.063 0 0 1 -0.0371 1.0664 15.063 15.063 0 0 1 -0.18164 1.4941 15.063 15.063 0 0 1 -0.33008 1.4688 15.063 15.063 0 0 1 -0.47461 1.4297 15.063 15.063 0 0 1 -0.61523 1.373 15.063 15.063 0 0 1 -0.75 1.3066 15.063 15.063 0 0 1 -0.875 1.2246 15.063 15.063 0 0 1 -0.99414 1.1309 15.063 15.063 0 0 1 -1.1016 1.0254 15.063 15.063 0 0 1 -1.1973 0.91211 15.063 15.063 0 0 1 -1.2852 0.78711 15.063 15.063 0 0 1 -1.3555 0.6543 15.063 15.063 0 0 1 -1.4141 0.51757 15.063 15.063 0 0 1 -1.459 0.3711 15.063 15.063 0 0 1 -1.4883 0.22461 15.063 15.063 0 0 1 -1.5039 0.0762 15.063 15.063 0 0 1 -1.0664 -0.0371 15.063 15.063 0 0 1 -1.4941 -0.18164 15.063 15.063 0 0 1 -1.4688 -0.33008 15.063 15.063 0 0 1 -1.4297 -0.47461 15.063 15.063 0 0 1 -1.373 -0.61523 15.063 15.063 0 0 1 -1.3066 -0.75 15.063 15.063 0 0 1 -1.2246 -0.875 15.063 15.063 0 0 1 -1.1309 -0.99414 15.063 15.063 0 0 1 -1.0254 -1.1016 15.063 15.063 0 0 1 -0.91211 -1.1973 15.063 15.063 0 0 1 -0.78711 -1.2852 15.063 15.063 0 0 1 -0.6543 -1.3555 15.063 15.063 0 0 1 -0.51757 -1.4141 15.063 15.063 0 0 1 -0.3711 -1.459 15.063 15.063 0 0 1 -0.22461 -1.4883 15.063 15.063 0 0 1 -0.0762 -1.5039 15.063 15.063 0 0 1 0.0371 -1.0664 15.063 15.063 0 0 1 0.18164 -1.4941 15.063 15.063 0 0 1 0.33008 -1.4688 15.063 15.063 0 0 1 0.47461 -1.4297 15.063 15.063 0 0 1 0.61523 -1.373 15.063 15.063 0 0 1 0.75 -1.3066 15.063 15.063 0 0 1 0.875 -1.2246 15.063 15.063 0 0 1 0.99414 -1.1309 15.063 15.063 0 0 1 1.1016 -1.0254 15.063 15.063 0 0 1 1.1973 -0.91211 15.063 15.063 0 0 1 1.2852 -0.78711 15.063 15.063 0 0 1 1.3555 -0.6543 15.063 15.063 0 0 1 1.4141 -0.51757 15.063 15.063 0 0 1 1.459 -0.3711 15.063 15.063 0 0 1 1.4883 -0.22461 15.063 15.063 0 0 1 1.5039 -0.0762zm86.625 0a15.063 15.063 0 0 1 1.0664 0.0371 15.063 15.063 0 0 1 1.4941 0.18164 15.063 15.063 0 0 1 1.4688 0.33008 15.063 15.063 0 0 1 1.4297 0.47461 15.063 15.063 0 0 1 1.373 0.61523 15.063 15.063 0 0 1 1.3066 0.75 15.063 15.063 0 0 1 1.2246 0.875 15.063 15.063 0 0 1 1.1309 0.99414 15.063 15.063 0 0 1 1.0254 1.1016 15.063 15.063 0 0 1 0.91211 1.1973 15.063 15.063 0 0 1 0.78711 1.2852 15.063 15.063 0 0 1 0.6543 1.3555 15.063 15.063 0 0 1 0.51757 1.4141 15.063 15.063 0 0 1 0.3711 1.459 15.063 15.063 0 0 1 0.22461 1.4883 15.063 15.063 0 0 1 0.0762 1.5039 15.063 15.063 0 0 1 -0.0371 1.0664 15.063 15.063 0 0 1 -0.18164 1.4941 15.063 15.063 0 0 1 -0.33008 1.4688 15.063 15.063 0 0 1 -0.47461 1.4297 15.063 15.063 0 0 1 -0.61523 1.373 15.063 15.063 0 0 1 -0.75 1.3066 15.063 15.063 0 0 1 -0.875 1.2246 15.063 15.063 0 0 1 -0.99414 1.1309 15.063 15.063 0 0 1 -1.1016 1.0254 15.063 15.063 0 0 1 -1.1973 0.91211 15.063 15.063 0 0 1 -1.2852 0.78711 15.063 15.063 0 0 1 -1.3555 0.6543 15.063 15.063 0 0 1 -1.4141 0.51757 15.063 15.063 0 0 1 -1.459 0.3711 15.063 15.063 0 0 1 -1.4883 0.22461 15.063 15.063 0 0 1 -1.5039 0.0762 15.063 15.063 0 0 1 -1.0664 -0.0371 15.063 15.063 0 0 1 -1.4941 -0.18164 15.063 15.063 0 0 1 -1.4688 -0.33008 15.063 15.063 0 0 1 -1.4297 -0.47461 15.063 15.063 0 0 1 -1.373 -0.61523 15.063 15.063 0 0 1 -1.3066 -0.75 15.063 15.063 0 0 1 -1.2246 -0.875 15.063 15.063 0 0 1 -1.1309 -0.99414 15.063 15.063 0 0 1 -1.0254 -1.1016 15.063 15.063 0 0 1 -0.91211 -1.1973 15.063 15.063 0 0 1 -0.78711 -1.2852 15.063 15.063 0 0 1 -0.6543 -1.3555 15.063 15.063 0 0 1 -0.51757 -1.4141 15.063 15.063 0 0 1 -0.3711 -1.459 15.063 15.063 0 0 1 -0.22461 -1.4883 15.063 15.063 0 0 1 -0.0762 -1.5039 15.063 15.063 0 0 1 0.0371 -1.0664 15.063 15.063 0 0 1 0.18164 -1.4941 15.063 15.063 0 0 1 0.33008 -1.4688 15.063 15.063 0 0 1 0.47461 -1.4297 15.063 15.063 0 0 1 0.61523 -1.373 15.063 15.063 0 0 1 0.75 -1.3066 15.063 15.063 0 0 1 0.875 -1.2246 15.063 15.063 0 0 1 0.99414 -1.1309 15.063 15.063 0 0 1 1.1016 -1.0254 15.063 15.063 0 0 1 1.1973 -0.91211 15.063 15.063 0 0 1 1.2852 -0.78711 15.063 15.063 0 0 1 1.3555 -0.6543 15.063 15.063 0 0 1 1.4141 -0.51757 15.063 15.063 0 0 1 1.459 -0.3711 15.063 15.063 0 0 1 1.4883 -0.22461 15.063 15.063 0 0 1 1.5039 -0.0762z" color="#000000" color-rendering="auto" dominant-baseline="auto" fill="#14968a" fill-rule="evenodd" image-rendering="auto" shape-rendering="auto" solid-color="#000000" style="font-feature-settings:normal;font-variant-alternates:normal;font-variant-caps:normal;font-variant-ligatures:normal;font-variant-numeric:normal;font-variant-position:normal;isolation:auto;mix-blend-mode:normal;shape-padding:0;text-decoration-color:#000000;text-decoration-line:none;text-decoration-style:solid;text-indent:0;text-orientation:mixed;text-transform:none;white-space:normal"/>
  </g>
 </g>
</svg>
